# xmcd
#
# Track frame offsets:
#	150
#	13370
#	26505
#	41030
#	58847
#	75195
#	93779
#	108972
#	129258
#	140932
#	158586
#	176013
#	192516
#	211327
#	224572
#	240114
#	255795
#	272149
#	287634
#	302935
#	321385
#	339774
#
# Disc length: 4795
#
# Revision: 4
# Processed by: cddbd v1.5.1PL0 Copyright (c) Steve Scherf et al.
# Submitted via: audiograbber 1.83.01
# Normalized: r3:DSETVAR1
#
DISCID=3512b916
DTITLE=Various Artist - Bravohits 42 CD 2
DYEAR=2003
DGENRE=Pop
TTITLE0=Garcia - I Don't Think So
TTITLE1=Nena - Nur geträumt
TTITLE2=Sarah Connor - Bounce
TTITLE3=Mark Oh - Stuck On You
TTITLE4=Jeanette - Right Now
TTITLE5=RAZ feat. Xavier Naidoo - Ich kenne nichts
TTITLE6=Wayne Wonder - No Letting Go
TTITLE7=Yvonne Catterfeld - Für Dich
TTITLE8=Sertab Erener - Everyway That I Can
TTITLE9=Massive Töne feat. Fetsum - Stress
TTITLE10=Die 3. Generation - Was Passiert
TTITLE11=DMX - X Gon Give It To Ya
TTITLE12=In Extremo - Küss Mich
TTITLE13=Megakerls - Schön Sein
TTITLE14=Buddy vs. DJ The Wave - Ab in den Süden
TTITLE15=Culture Beat - Mr. Vain Recall
TTITLE16=Lichtenfels - Sounds Like A Melody
TTITLE17=Mission Belle - Dream
TTITLE18=Daniel Kübelböck - Heartbeat
TTITLE19=Patrick Nuo - The Air That I Breathe
TTITLE20=Judith Lefeber - I Will Follow You (Anspieltip)
TTITLE21=Daten - Daten
EXTD=
EXTT0=
EXTT1=
EXTT2=
EXTT3=
EXTT4=
EXTT5=
EXTT6=
EXTT7=
EXTT8=
EXTT9=
EXTT10=
EXTT11=
EXTT12=
EXTT13=
EXTT14=
EXTT15=
EXTT16=
EXTT17=
EXTT18=
EXTT19=
EXTT20=
EXTT21=
PLAYORDER=
